# xmcd
#
# Track frame offsets:
#	183
#	21328
#	35620
#	48795
#	61205
#	73270
#	84498
#	98700
#	112778
#	124925
#	145145
#	158210
#	172983
#	183418
#
# Disc length: 2693 seconds
#
# Revision: 1
# Processed by: cddbd v1.4PL0 Copyright (c) Steve Scherf et al.
# Submitted via: audiograbber 1.82.02
#
DISCID=b70a830e
DTITLE=Various Artist - ICE Country Festival
DYEAR=1988
DGENRE=Country
TTITLE0=Tanya Tucker - Texas When I Die
TTITLE1=Sweethearts Of The Rodeo - Chains of Gold
TTITLE2=Lorrie Morgen - Stuck On You
TTITLE3=Patty Loveless - Lonely Days, Lonely Nights
TTITLE4=Lynn Anderson - Rose Garden
TTITLE5=Karen Taylor-Good - Country Boys Song
TTITLE6=Denis Price - Long Hard Fall
TTITLE7=Dottie West - What Are We Doing In Love
TTITLE8=Forester Singers - Dixie Man
TTITLE9=Barbara Fairchild - Tip On My Fingers
TTITLE10=Tammy Wynette - Stand By Your Man
TTITLE11=Jeanny C. Riley - Harper Valley P.T.A.
TTITLE12=Stella Parton - Standard Lie Number One
TTITLE13=Cathy Hunter - Flight 309 To Tennessee
EXTD=
EXTT0=
EXTT1=
EXTT2=
EXTT3=
EXTT4=
EXTT5=
EXTT6=
EXTT7=
EXTT8=
EXTT9=
EXTT10=
EXTT11=
EXTT12=
EXTT13=
PLAYORDER=
